<mxfile host="Electron" modified="2024-01-15T05:11:03.358Z" agent="Mozilla/5.0 (Windows NT 10.0; Win64; x64) AppleWebKit/537.36 (KHTML, like Gecko) draw.io/22.1.18 Chrome/120.0.6099.199 Electron/28.1.2 Safari/537.36" etag="eLXUrrP0K33-YHkS5GDz" version="22.1.18" type="device">
  <diagram name="Page-1" id="Caa9E9GEJXXpX6c3hobu">
    <mxGraphModel dx="558" dy="383" grid="1" gridSize="10" guides="1" tooltips="1" connect="1" arrows="1" fold="1" page="1" pageScale="1" pageWidth="850" pageHeight="1100" math="0" shadow="0">
      <root>
        <mxCell id="0" />
        <mxCell id="1" parent="0" />
        <mxCell id="Jd0V6s8Q-409282UJGnS-2" value="" style="shape=flexArrow;endArrow=classic;html=1;rounded=0;fillColor=#f5f5f5;gradientColor=#b3b3b3;strokeColor=#666666;" edge="1" parent="1">
          <mxGeometry width="50" height="50" relative="1" as="geometry">
            <mxPoint x="320" y="40" as="sourcePoint" />
            <mxPoint x="320" y="270" as="targetPoint" />
          </mxGeometry>
        </mxCell>
        <mxCell id="Jd0V6s8Q-409282UJGnS-7" value="&lt;font style=&quot;font-size: 10px;&quot;&gt;生&lt;br&gt;存&lt;br&gt;期&lt;/font&gt;" style="edgeLabel;html=1;align=center;verticalAlign=middle;resizable=0;points=[];labelBackgroundColor=none;" vertex="1" connectable="0" parent="Jd0V6s8Q-409282UJGnS-2">
          <mxGeometry x="-0.1516" y="-2" relative="1" as="geometry">
            <mxPoint x="2" y="2" as="offset" />
          </mxGeometry>
        </mxCell>
        <mxCell id="Jd0V6s8Q-409282UJGnS-9" style="edgeStyle=orthogonalEdgeStyle;rounded=0;orthogonalLoop=1;jettySize=auto;html=1;" edge="1" parent="1" source="Jd0V6s8Q-409282UJGnS-3" target="Jd0V6s8Q-409282UJGnS-8">
          <mxGeometry relative="1" as="geometry" />
        </mxCell>
        <mxCell id="Jd0V6s8Q-409282UJGnS-3" value="构造" style="rounded=0;whiteSpace=wrap;html=1;fillColor=#fad7ac;strokeColor=#b46504;fontFamily=consolas;" vertex="1" parent="1">
          <mxGeometry x="200" y="40" width="100" height="30" as="geometry" />
        </mxCell>
        <mxCell id="Jd0V6s8Q-409282UJGnS-4" value="对象a" style="text;html=1;strokeColor=none;fillColor=none;align=center;verticalAlign=middle;whiteSpace=wrap;rounded=0;" vertex="1" parent="1">
          <mxGeometry x="220" y="10" width="60" height="30" as="geometry" />
        </mxCell>
        <mxCell id="Jd0V6s8Q-409282UJGnS-8" value="析构" style="rounded=0;whiteSpace=wrap;html=1;fillColor=#fad7ac;strokeColor=#b46504;fontFamily=consolas;" vertex="1" parent="1">
          <mxGeometry x="200" y="240" width="100" height="30" as="geometry" />
        </mxCell>
        <mxCell id="Jd0V6s8Q-409282UJGnS-16" value="" style="edgeStyle=orthogonalEdgeStyle;rounded=0;orthogonalLoop=1;jettySize=auto;html=1;" edge="1" parent="1" source="Jd0V6s8Q-409282UJGnS-11" target="Jd0V6s8Q-409282UJGnS-15">
          <mxGeometry relative="1" as="geometry" />
        </mxCell>
        <mxCell id="Jd0V6s8Q-409282UJGnS-11" value="构造" style="rounded=0;whiteSpace=wrap;html=1;fillColor=#b1ddf0;strokeColor=#10739e;fontFamily=consolas;" vertex="1" parent="1">
          <mxGeometry x="340" y="40" width="100" height="30" as="geometry" />
        </mxCell>
        <mxCell id="Jd0V6s8Q-409282UJGnS-12" value="对象b" style="text;html=1;strokeColor=none;fillColor=none;align=center;verticalAlign=middle;whiteSpace=wrap;rounded=0;" vertex="1" parent="1">
          <mxGeometry x="360" y="10" width="60" height="30" as="geometry" />
        </mxCell>
        <mxCell id="Jd0V6s8Q-409282UJGnS-13" value="析构" style="rounded=0;whiteSpace=wrap;html=1;fillColor=#b1ddf0;strokeColor=#10739e;fontFamily=consolas;" vertex="1" parent="1">
          <mxGeometry x="340" y="240" width="100" height="30" as="geometry" />
        </mxCell>
        <mxCell id="Jd0V6s8Q-409282UJGnS-18" value="" style="edgeStyle=orthogonalEdgeStyle;rounded=0;orthogonalLoop=1;jettySize=auto;html=1;" edge="1" parent="1" source="Jd0V6s8Q-409282UJGnS-15" target="Jd0V6s8Q-409282UJGnS-17">
          <mxGeometry relative="1" as="geometry" />
        </mxCell>
        <mxCell id="Jd0V6s8Q-409282UJGnS-15" value="&lt;font face=&quot;consolas&quot;&gt;调用b.length()&lt;/font&gt;" style="rounded=0;whiteSpace=wrap;html=1;fillColor=#b1ddf0;strokeColor=#10739e;" vertex="1" parent="1">
          <mxGeometry x="340" y="90" width="100" height="30" as="geometry" />
        </mxCell>
        <mxCell id="Jd0V6s8Q-409282UJGnS-20" value="" style="edgeStyle=orthogonalEdgeStyle;rounded=0;orthogonalLoop=1;jettySize=auto;html=1;" edge="1" parent="1" source="Jd0V6s8Q-409282UJGnS-17" target="Jd0V6s8Q-409282UJGnS-19">
          <mxGeometry relative="1" as="geometry" />
        </mxCell>
        <mxCell id="Jd0V6s8Q-409282UJGnS-17" value="&lt;font face=&quot;consolas&quot;&gt;计算&lt;/font&gt;" style="rounded=0;whiteSpace=wrap;html=1;fillColor=#fad9d5;strokeColor=#ae4132;" vertex="1" parent="1">
          <mxGeometry x="460" y="90" width="100" height="30" as="geometry" />
        </mxCell>
        <mxCell id="Jd0V6s8Q-409282UJGnS-24" value="" style="edgeStyle=orthogonalEdgeStyle;rounded=0;orthogonalLoop=1;jettySize=auto;html=1;" edge="1" parent="1" source="Jd0V6s8Q-409282UJGnS-19" target="Jd0V6s8Q-409282UJGnS-23">
          <mxGeometry relative="1" as="geometry" />
        </mxCell>
        <mxCell id="Jd0V6s8Q-409282UJGnS-19" value="&lt;font face=&quot;consolas&quot;&gt;存储&lt;br&gt;清除延迟标记&lt;br&gt;&lt;/font&gt;" style="rounded=0;whiteSpace=wrap;html=1;fillColor=#fad9d5;strokeColor=#ae4132;" vertex="1" parent="1">
          <mxGeometry x="460" y="140" width="100" height="30" as="geometry" />
        </mxCell>
        <mxCell id="Jd0V6s8Q-409282UJGnS-28" value="" style="edgeStyle=orthogonalEdgeStyle;rounded=0;orthogonalLoop=1;jettySize=auto;html=1;" edge="1" parent="1" source="Jd0V6s8Q-409282UJGnS-23" target="Jd0V6s8Q-409282UJGnS-27">
          <mxGeometry relative="1" as="geometry" />
        </mxCell>
        <mxCell id="Jd0V6s8Q-409282UJGnS-23" value="&lt;font face=&quot;consolas&quot;&gt;返回b.length()&lt;/font&gt;" style="rounded=0;whiteSpace=wrap;html=1;fillColor=#b1ddf0;strokeColor=#10739e;" vertex="1" parent="1">
          <mxGeometry x="340" y="140" width="100" height="30" as="geometry" />
        </mxCell>
        <mxCell id="Jd0V6s8Q-409282UJGnS-29" value="" style="edgeStyle=orthogonalEdgeStyle;rounded=0;orthogonalLoop=1;jettySize=auto;html=1;" edge="1" parent="1" source="Jd0V6s8Q-409282UJGnS-27" target="Jd0V6s8Q-409282UJGnS-13">
          <mxGeometry relative="1" as="geometry" />
        </mxCell>
        <mxCell id="Jd0V6s8Q-409282UJGnS-27" value="&lt;font face=&quot;consolas&quot;&gt;调用b.length()&lt;/font&gt;" style="rounded=0;whiteSpace=wrap;html=1;fillColor=#b1ddf0;strokeColor=#10739e;" vertex="1" parent="1">
          <mxGeometry x="340" y="190" width="100" height="30" as="geometry" />
        </mxCell>
        <mxCell id="Jd0V6s8Q-409282UJGnS-30" value="&lt;font face=&quot;consolas&quot;&gt;全程没有调用length()&lt;br&gt;所以不需要计算&lt;br&gt;节省时间&lt;br&gt;&lt;/font&gt;" style="text;html=1;strokeColor=none;fillColor=none;align=center;verticalAlign=middle;whiteSpace=wrap;rounded=0;" vertex="1" parent="1">
          <mxGeometry x="180" y="280" width="140" height="60" as="geometry" />
        </mxCell>
        <mxCell id="Jd0V6s8Q-409282UJGnS-31" value="&lt;font face=&quot;consolas&quot;&gt;首次调用length()时计算&lt;br&gt;并清除延迟标记&lt;br&gt;以后调用时直接返回值&lt;br&gt;无需再算&lt;br&gt;&lt;/font&gt;" style="text;html=1;strokeColor=none;fillColor=none;align=center;verticalAlign=middle;whiteSpace=wrap;rounded=0;" vertex="1" parent="1">
          <mxGeometry x="320" y="280" width="140" height="60" as="geometry" />
        </mxCell>
      </root>
    </mxGraphModel>
  </diagram>
</mxfile>
